<?xml version="1.0" encoding="utf-8"?>
<!-- Generator: Adobe Illustrator 22.1.0, SVG Export Plug-In . SVG Version: 6.00 Build 0)  -->
<svg version="1.1" id="Layer_4" xmlns="http://www.w3.org/2000/svg" xmlns:xlink="http://www.w3.org/1999/xlink" x="0px" y="0px"
	 viewBox="0 0 111.8 137" style="enable-background:new 0 0 111.8 137;" xml:space="preserve">
<style type="text/css">
	.st0{display:none;fill:#FFD54F;stroke:#757575;stroke-miterlimit:10;}
	.st1{fill:none;}
	.st2{fill:#005B82;}
	.st3{fill:#FFA726;}
	.st4{font-family:'ArialMT';}
	.st5{font-size:25.5537px;}
</style>
<g id="Layer_2_1_">
	<path class="st0" d="M60.4,14.6c-32.8,0-59.6,26.7-59.6,59.6s26.7,59.6,59.6,59.6S120,107.1,120,74.2S93.3,14.6,60.4,14.6z
		 M60.4,123.8c-27.4,0-49.6-22.2-49.6-49.6S33,24.6,60.4,24.6S110,46.8,110,74.2S87.8,123.8,60.4,123.8z"/>
	<rect x="31.5" y="54.2" class="st1" width="62" height="50.5"/>
	<path class="st2" d="M96.2,7.2l-1.1-1L75.5,19C54.4,10.7,29.6,17.5,16,36.8C0.3,59,5.2,89.5,26.7,105.8L39.3,88
		c-11.6-9.3-14.2-26.3-5.4-38.6S59.4,33.6,72,41.5l12.6-17.8l0,0L96.2,7.2L96.2,7.2z"/>
	<path class="st3" d="M87.5,25.7L75,43.5c11.6,9.3,14.2,26.3,5.4,38.6s-25.5,15.7-38.2,7.8L18,124.2l1.2,1l19.5-12.7
		c21,8.3,45.8,1.5,59.5-17.8C113.8,72.5,108.9,42,87.5,25.7L87.5,25.7z"/>
	<text transform="matrix(1 0 0 1 30.5352 74.5527)" class="st4 st5">BOB</text>
</g>
</svg>
