<?xml version="1.0" encoding="utf-8"?>
<!-- Generator: Adobe Illustrator 22.1.0, SVG Export Plug-In . SVG Version: 6.00 Build 0)  -->
<svg version="1.1" xmlns="http://www.w3.org/2000/svg" xmlns:xlink="http://www.w3.org/1999/xlink" x="0px" y="0px"
	 viewBox="0 0 111.8 137" style="enable-background:new 0 0 111.8 137;" xml:space="preserve">
<style type="text/css">
	.st0{display:none;}
	.st1{display:inline;stroke:#FFFFFF;stroke-miterlimit:10;}
	.st2{fill:#FFFFFF;}
	.st3{font-family:'ArialMT';}
	.st4{font-size:26.4391px;}
</style>
<g id="Layer_2" class="st0">
	<rect x="-3.3" y="-21" class="st1" width="118.5" height="158"/>
</g>
<g id="Layer_4">
	<text transform="matrix(1 0 0 1 29.166 74.9814)" class="st2 st3 st4">BOB</text>
	<path class="st2" d="M96.2,7.2l-1.1-1L75.5,19C54.4,10.7,29.6,17.5,16,36.8C0.3,59,5.2,89.5,26.7,105.8L39.3,88
		c-11.6-9.3-14.2-26.3-5.4-38.6S59.4,33.6,72,41.5l12.6-17.8l0,0L96.2,7.2L96.2,7.2z"/>
	<path class="st2" d="M87.5,25.7L75,43.5c11.6,9.3,14.2,26.3,5.4,38.6s-25.5,15.7-38.2,7.8L18,124.2l1.2,1l19.5-12.7
		c21,8.3,45.8,1.5,59.5-17.8C113.8,72.5,108.9,42,87.5,25.7L87.5,25.7z"/>
</g>
</svg>
