<?xml version="1.0" encoding="utf-8"?>
<!-- Generator: Adobe Illustrator 22.1.0, SVG Export Plug-In . SVG Version: 6.00 Build 0)  -->
<svg version="1.1" id="Layer_4" xmlns="http://www.w3.org/2000/svg" xmlns:xlink="http://www.w3.org/1999/xlink" x="0px" y="0px"
	 viewBox="0 0 111.8 137" style="enable-background:new 0 0 111.8 137;" xml:space="preserve">
<style type="text/css">
	.st0{fill:url(#rect2818_1_);stroke:#625874;stroke-width:0.9889;}
	.st1{fill:#363433;}
	.st2{fill:#F6DAAA;stroke:#363433;stroke-width:1.3;stroke-linecap:square;}
	.st3{fill:none;stroke:#6D6E6E;stroke-width:0.5;stroke-linecap:square;}
	.st4{fill:url(#path3610_1_);stroke:#363433;stroke-width:1.3;stroke-linecap:square;}
	.st5{fill:#F6DAAA;}
	.st6{fill:url(#path3917_1_);}
	.st7{fill:#FFFFFF;stroke:url(#path3664_1_);stroke-width:0.75;stroke-linecap:square;}
	.st8{fill:#343231;}
	.st9{fill:#FFFFFF;}
	.st10{fill:url(#path3680_1_);}
	.st11{fill:#413F3E;}
	.st12{fill:#E67E71;}
	.st13{display:none;fill:#FFD54F;stroke:#757575;stroke-miterlimit:10;}
	.st14{fill:#005B82;}
	.st15{fill:#FFA726;}
	.st16{fill:none;stroke:#000000;stroke-width:8;stroke-miterlimit:10;}
</style>
<g id="Layer_1">
	
		<linearGradient id="rect2818_1_" gradientUnits="userSpaceOnUse" x1="149.8918" y1="313.7835" x2="149.8918" y2="224.7835" gradientTransform="matrix(1 0 0 -1 -97.6378 349.0551)">
		<stop  offset="0" style="stop-color:#8A7AB9"/>
		<stop  offset="1" style="stop-color:#B888B6"/>
	</linearGradient>
	<path id="rect2818" class="st0" d="M10.2,35.8h84.1c1.1,0,2,0.9,2,2v84.1c0,1.1-0.9,2-2,2H10.2c-1.1,0-2-0.9-2-2V37.7
		C8.2,36.7,9.1,35.8,10.2,35.8z"/>
	<path id="path3724" class="st1" d="M39.7,97c-22.4,0-24.3,21.9-24.5,26.3h47.2C62.5,118.2,61.6,97,39.7,97z"/>
	<path id="path3606" class="st2" d="M79.5,60.4c0.2,12.1-14.8-5.3-12.9-12.6c1.3-1.3,2.6-2.3,4.8-2.5C73.2,45.5,78,53.5,79.5,60.4z"
		/>
	<path id="path3772" class="st3" d="M47.5,49.4c8.4-21.5,4.7-41.9-2.9-43.9"/>
	
		<linearGradient id="path3610_1_" gradientUnits="userSpaceOnUse" x1="87.3568" y1="259.4918" x2="80.3388" y2="251.6661" gradientTransform="matrix(1 0 0 -1 -41.6378 349.0551)">
		<stop  offset="0" style="stop-color:#F6DAAA"/>
		<stop  offset="1" style="stop-color:#E4BC98"/>
	</linearGradient>
	<path id="path3610" class="st4" d="M47,49C35,50.5,32.9,61,34,64.8c3.4,12,5,20.2,5.1,33.9c2,2.2,7.8,4.6,11.3,1.1
		c-1.1-8.2,5.7-10.5,16-9.7c12.3,0.9,28.1-2,28.1-13.6C93.4,69,85,63.6,71.8,56"/>
	<path id="path3774" class="st3" d="M50.3,47.4c-0.4-10,22.1-28.3,30-19"/>
	<path id="path3608" class="st5" d="M42,54.7c12.4-15.3,23.8-17.2,32.2,8.1"/>
	
		<radialGradient id="path3917_1_" cx="109.7702" cy="338.4504" r="5.2966" gradientTransform="matrix(1.5766 0 0 -1.5766 -88.1924 603.9945)" gradientUnits="userSpaceOnUse">
		<stop  offset="0" style="stop-color:#FFFFFF"/>
		<stop  offset="1" style="stop-color:#FFFFFF;stop-opacity:0"/>
	</radialGradient>
	<path id="path3917" class="st6" d="M81.9,62.6c-3.2,1.2-5.4,4.2-5.4,7.8c0,4.6,3.7,8.3,8.3,8.3c3.8,0,7-2.5,8-6
		c-1.1-2.1-2.9-4.2-5.4-6.2C85.9,65.2,84,63.9,81.9,62.6z"/>
	<path id="path3660" class="st1" d="M47.9,87.2c-0.5,0-1.1,0.9-0.2,0.8c4.5-0.4,8.8-0.3,12.6,2.3l0.3-0.1l0.5-0.6l0.1-0.2
		C57.1,87,52.6,86.7,47.9,87.2z"/>
	
		<linearGradient id="path3664_1_" gradientUnits="userSpaceOnUse" x1="98.9712" y1="289.425" x2="96.041" y2="289.7502" gradientTransform="matrix(1 0 0 -1 -41.6378 349.0551)">
		<stop  offset="0" style="stop-color:#363433"/>
		<stop  offset="1" style="stop-color:#363433;stop-opacity:0"/>
	</linearGradient>
	<path id="path3664" class="st7" d="M53.3,68.5c-0.9-0.9-6.1-17.1,2.8-19.6c5.7-1.6,12.5,10.9,12.5,16.2S57.9,72.8,53.3,68.5z"/>
	<path id="path3674" class="st8" d="M61.8,56.4c-0.6,3.1-2.8,5.3-4.9,4.9c-2.2-0.4-3.5-3.3-2.9-6.4c0.6-3.1,2.8-5.3,4.9-4.9
		C61.1,50.4,62.4,53.3,61.8,56.4z"/>
	<path id="path3676" class="st9" d="M58.6,54.2c-0.5,1-1.4,1.6-2,1.3c-0.6-0.3-0.7-1.3-0.2-2.4c0,0,0,0,0,0c0.5-1,1.4-1.6,2-1.3
		C59,52.2,59.1,53.2,58.6,54.2C58.6,54.2,58.6,54.2,58.6,54.2z"/>
	<path id="path3678" class="st9" d="M57.1,58.9c0.2,0.3,0.6,0.4,1,0.3c0.3-0.1,0.5-0.4,0.3-0.7c-0.2-0.3-0.6-0.4-1-0.3
		C57,58.3,56.9,58.6,57.1,58.9L57.1,58.9z"/>
	
		<radialGradient id="path3680_1_" cx="207.5545" cy="398.0219" r="9.7896" gradientTransform="matrix(0.5865 0.2935 1.194 -2.3859 -560.1332 947.4855)" gradientUnits="userSpaceOnUse">
		<stop  offset="0" style="stop-color:#E4BC98"/>
		<stop  offset="1" style="stop-color:#F6DAAA;stop-opacity:0"/>
	</radialGradient>
	<path id="path3680" class="st10" d="M47.6,49.6l-0.3,0c-0.6,0.5-0.6,0.3-0.5,0.1c-0.1,0-0.2,0-0.3,0.1c-0.1,0.1-0.2,0.3-0.4,0.5
		l-0.3,0.4l-0.3,0.1l0.3-0.4c0.3-0.3,0.3-0.4,0.4-0.5c-0.1,0-0.2,0-0.3,0c-0.3,0.2-0.6,0.4-0.2,0.1c-4.9,1-7.9,3.6-9.5,6.5
		c-1.8,3.1-2,6.6-1.6,8.2c0,0,0,0,0,0c3.3,11.9,5,20.1,5.1,33.7c0.9,0.9,2.7,2,4.6,2.4c1.3,0.3,2.5,0.2,3.7-0.2
		c0.7-0.7,1.2-1.8,1.7-2.9c0.2-3,1.7-5.3,4.1-6.6c0,0,0,0,0,0L47.6,49.6z"/>
	<path id="path3776" class="st11" d="M45.8,5.2c0,0.9-0.7,1.6-1.6,1.6c-0.9,0-1.6-0.7-1.6-1.6s0.7-1.6,1.6-1.6
		C45.1,3.6,45.8,4.3,45.8,5.2z"/>
	<path id="path3778" class="st11" d="M81.8,28.5c0,0.9-0.7,1.6-1.6,1.6s-1.6-0.7-1.6-1.6c0-0.9,0.7-1.6,1.6-1.6S81.8,27.6,81.8,28.5
		z"/>
	<path id="path3848" class="st9" d="M38.6,97.6c-11.6-0.3-19,11.4-18.2,11.8c1.4,0.3,2.9-3,8.7-7.9c2.6-2.2,9.6-3,9.5-3.8
		C38.6,97.7,38.6,97.6,38.6,97.6z"/>
	<path id="path3735" class="st12" d="M38.7,100.9c-12.3,5.4-16,14-16.1,22.4h38.5c0-6.5-0.4-15.2-9.8-21.9c-2.2,2-5.1,2.3-7.5,1.8
		C41.8,102.7,40,101.9,38.7,100.9z"/>
	<path id="path3953" class="st1" d="M74.1,62.9c-1.6-6.5-3.9-11.2-6.4-14.4c-2.5-3.2-5.2-5-8.1-5.4s-5.8,0.5-8.8,2.5
		S44,51.8,42,54.7c3.3-3.3,6.5-6.5,9.4-8.3s5.6-2.7,8.2-2.3c2.6,0.4,5,1.9,7.4,5S71.9,56.6,74.1,62.9z"/>
</g>
<g id="Layer_2">
</g>
<g id="Layer_3">
</g>
</svg>
