<?xml version="1.0" encoding="utf-8"?>
<!-- Generator: Adobe Illustrator 23.0.3, SVG Export Plug-In . SVG Version: 6.00 Build 0)  -->
<svg version="1.1" id="Layer_1" xmlns="http://www.w3.org/2000/svg" xmlns:xlink="http://www.w3.org/1999/xlink" x="0px" y="0px"
	 viewBox="0 0 454 130.3" style="enable-background:new 0 0 454 130.3;" xml:space="preserve">
<style type="text/css">
	.st0{stroke:#FFFFFF;stroke-miterlimit:10;}
	.st1{fill:#FFFFFF;}
</style>
<rect x="-48" y="-30" class="st0" width="632" height="248"/>
<g>
	<path class="st1" d="M125.9,38.6h17.8c17.3,0,31.9,7.4,31.9,27.1c0,17.4-14.2,26.8-30.3,26.8h-19.4L125.9,38.6 M137.8,81.5h6.2
		c11,0,19.3-4.2,19.3-16.4c0-10.6-8.4-15.5-18.5-15.5h-7V81.5L137.8,81.5z"/>
	<polygon class="st1" points="182.3,55.5 193.7,55.5 193.7,92.5 182.3,92.5 	"/>
	<path class="st1" d="M240.7,89.4c0,13.9-7.1,21.4-21.4,21.4c-6.5,0-13.2-1.1-18.6-5.4L207,96c3.5,3,7.4,4.8,12,4.8
		c6.9,0,10.2-3.8,10.2-9.1v-3.6H229c-2.6,3.6-7,4.9-10.4,4.9c-11,0-18.2-7.9-18.2-19.1c0-9.8,6.4-19.2,16.9-19.2
		c6.5,0,10.9,3.1,12.6,5.8h0.2v-4.9h10.5L240.7,89.4 M221.1,82.9c5.2,0,9.1-4.3,9.1-9.1c0-4.8-4-9.1-9.1-9.1S212,69,212,73.8
		C212,78.6,215.9,82.9,221.1,82.9L221.1,82.9z"/>
	<path class="st1" d="M250.9,55.5h10.5v4.9h0.2c1.7-2.7,6.2-5.8,11.3-5.8c11,0,18.2,7.9,18.2,19.1c0,10.3-6.4,19.7-16.9,19.7
		c-4.7,0-9.1-1.3-11.7-4.9h-0.2v21.3h-11.4V55.5 M270.5,83.4c5.7,0,9.1-3.8,9.1-9.4s-3.4-9.4-9.1-9.4s-9.1,3.8-9.1,9.4
		S264.8,83.4,270.5,83.4L270.5,83.4z"/>
	<path class="st1" d="M297.8,55.5h11.4v5.9h0.2c2.4-4.5,5.6-6.8,10.6-6.8c1.3,0,2.7,0.1,3.8,0.4v10.4c-1.6-0.5-3.2-0.8-4.9-0.8
		c-8.7,0-9.7,5-9.7,12.4v15.4h-11.4V55.5L297.8,55.5z"/>
	<path class="st1" d="M346.5,54.6c11.4,0,20.5,7.6,20.5,19.4s-9.1,19.4-20.5,19.4S326,85.8,326,74S335.1,54.6,346.5,54.6
		 M346.5,83.4c5.7,0,9.1-3.8,9.1-9.4s-3.4-9.4-9.1-9.4s-9.1,3.8-9.1,9.4S340.8,83.4,346.5,83.4L346.5,83.4z"/>
	<path class="st1" d="M93.9,1l-1.2-1L72.2,13.4C50,4.7,24,11.8,9.7,32.1C-6.8,55.4-1.7,87.5,20.9,104.6l13.2-18.7
		c-12.2-9.8-14.9-27.6-5.7-40.6s26.8-16.5,40.1-8.2l13.2-18.7l0,0L93.9,1L93.9,1z"/>
	<path class="st1" d="M84.8,20.5L71.6,39.2c12.2,9.8,14.9,27.6,5.7,40.6S50.5,96.3,37.2,88l-25.4,36l1.3,1l20.5-13.3
		c22.1,8.7,48.1,1.6,62.5-18.7C112.4,69.7,107.3,37.6,84.8,20.5L84.8,20.5z"/>
</g>
<g>
	<g>
		<path class="st1" d="M264.8,94.8h4.2V107h6.1v3.5h-10.3L264.8,94.8L264.8,94.8z"/>
		<path class="st1" d="M280.4,106.2c0.1,0.9,1.5,1.4,2.9,1.4c1.1,0,2.1-0.1,3.2-0.4l0.5,2.8c-1.4,0.5-2.9,0.7-4.3,0.7
			c-4,0-6.3-2.2-6.3-5.9c0-2.7,1.7-6.1,6-6.1c3.7,0,5.3,2.7,5.3,5.9c0,0.7-0.1,1.3-0.2,1.6H280.4z M283.7,103.4
			c0-0.7-0.3-1.9-1.6-1.9c-1.2,0-1.7,1.1-1.8,1.9H283.7z"/>
		<path class="st1" d="M293,99l1.2,4.9c0.2,0.9,0.4,1.8,0.5,2.7h0.1c0.1-0.9,0.3-1.8,0.5-2.7l1.1-4.9h4.4l-4.2,11.5h-4.2l-4-11.5
			H293z"/>
		<path class="st1" d="M305.8,106.2c0.1,0.9,1.5,1.4,2.9,1.4c1.1,0,2.1-0.1,3.2-0.4l0.5,2.8c-1.4,0.5-2.9,0.7-4.3,0.7
			c-4,0-6.3-2.2-6.3-5.9c0-2.7,1.7-6.1,6-6.1c3.7,0,5.3,2.7,5.3,5.9c0,0.7-0.1,1.3-0.2,1.6H305.8z M309.2,103.4
			c0-0.7-0.3-1.9-1.6-1.9c-1.2,0-1.7,1.1-1.8,1.9H309.2z"/>
		<path class="st1" d="M315,102.9c0-1.8,0-2.9-0.1-3.9h3.6l0.2,2.1h0.1c0.6-1.7,2.1-2.3,3.1-2.3c0.4,0,0.5,0,0.8,0.1v4
			c-0.3-0.1-0.6-0.1-1.1-0.1c-1.2,0-2.1,0.5-2.3,1.4c0,0.2-0.1,0.4-0.1,0.7v5.7H315V102.9z"/>
		<path class="st1" d="M331,110.5l-0.2-1h-0.1c-0.8,0.9-1.9,1.3-3.2,1.3c-2.3,0-3.8-1.7-3.8-3.6c0-3.1,2.8-4.5,6.7-4.5v-0.1
			c0-0.5-0.4-1-1.9-1c-1.2,0-2.5,0.4-3.2,0.9l-0.7-2.7c0.7-0.4,2.4-1,4.8-1c4,0,5.3,2.2,5.3,5.1v3.9c0,1.1,0.1,2.2,0.2,2.8H331
			V110.5z M330.5,105.2c-1.7,0-2.7,0.5-2.7,1.5c0,0.7,0.5,1.1,1.2,1.1c0.6,0,1.2-0.4,1.4-1.1c0-0.2,0.1-0.4,0.1-0.6V105.2z"/>
		<path class="st1" d="M337.2,102.9c0-1.5,0-2.8-0.1-3.9h3.6l0.2,1.5h0.1c0.4-0.6,1.5-1.7,3.4-1.7c2.7,0,4.1,1.8,4.1,5v6.8h-4.2
			v-6.3c0-1.3-0.5-2.1-1.5-2.1c-0.8,0-1.2,0.6-1.4,1c-0.1,0.2-0.1,0.5-0.1,0.8v6.5h-4.2v-7.6H337.2z"/>
		<path class="st1" d="M351.3,107c0.7,0.4,2.1,0.9,3.2,0.9c0.9,0,1.2-0.2,1.2-0.6s-0.3-0.6-1.5-1c-2.5-0.8-3.4-2.2-3.4-3.5
			c0-2.3,2-4,5-4c1.4,0,2.7,0.3,3.4,0.7l-0.7,2.9c-0.5-0.3-1.6-0.6-2.5-0.6c-0.7,0-1.1,0.2-1.1,0.6s0.4,0.6,1.7,1.1
			c2.3,0.7,3.1,1.9,3.1,3.6c0,2.2-1.7,3.8-5.2,3.8c-1.6,0-3-0.3-3.9-0.8L351.3,107z"/>
		<path class="st1" d="M373.1,99c-0.1,0.7-0.1,1.7-0.1,3.5v6.3c0,2-0.4,3.9-1.8,5.1c-1.3,1.1-3.1,1.4-4.9,1.4
			c-1.6,0-3.2-0.3-4.3-0.9l0.8-3.2c0.7,0.4,2,0.8,3.3,0.8c1.5,0,2.7-0.8,2.7-2.6v-0.5l0,0c-0.7,0.9-1.7,1.3-2.9,1.3
			c-2.8,0-4.8-2.2-4.8-5.6c0-3.6,2.3-6,5.2-6c1.4,0,2.3,0.5,3,1.5l0,0l0.1-1.2L373.1,99L373.1,99z M368.8,103.8c0-0.2,0-0.4-0.1-0.5
			c-0.2-0.8-0.7-1.3-1.5-1.3c-1,0-1.9,1-1.9,2.8c0,1.5,0.7,2.6,1.9,2.6c0.8,0,1.3-0.5,1.5-1.1c0.1-0.2,0.1-0.6,0.1-0.9V103.8z"/>
		<path class="st1" d="M375.6,102.9c0-1.8,0-2.9-0.1-3.9h3.6l0.2,2.1h0.1c0.6-1.7,2.1-2.3,3.1-2.3c0.4,0,0.5,0,0.8,0.1v4
			c-0.3-0.1-0.6-0.1-1.1-0.1c-1.2,0-2.1,0.5-2.3,1.4c0,0.2-0.1,0.4-0.1,0.7v5.7h-4.2V102.9z"/>
		<path class="st1" d="M396.3,106.6c0,1.6,0,2.9,0.1,3.9h-3.6l-0.2-1.5h-0.1c-0.4,0.6-1.4,1.8-3.5,1.8c-2.6,0-4.1-1.7-4.1-5V99h4.2
			v6.1c0,1.5,0.5,2.3,1.5,2.3c0.8,0,1.2-0.5,1.4-1c0.1-0.2,0.1-0.4,0.1-0.6V99h4.2V106.6z"/>
		<path class="st1" d="M398.9,102.9c0-1.5,0-2.8-0.1-3.9h3.6l0.2,1.5l0,0c0.9-1.1,2.1-1.7,3.7-1.7c2.4,0,4.7,2.1,4.7,5.9
			c0,4.2-2.7,6.1-5.2,6.1c-1.3,0-2.3-0.5-2.7-1.1l0,0v5.5h-4.2V102.9z M403.1,105.5c0,0.3,0,0.5,0.1,0.7c0.2,0.7,0.8,1.4,1.6,1.4
			c1.3,0,2-1.1,2-2.7s-0.7-2.8-2-2.8c-0.8,0-1.6,0.7-1.7,1.5c0,0.2-0.1,0.4-0.1,0.5v1.4H403.1z"/>
		<path class="st1" d="M413.2,102.9c0-1.5,0-2.8-0.1-3.9h3.6l0.2,1.5l0,0c0.9-1.1,2.1-1.7,3.7-1.7c2.4,0,4.7,2.1,4.7,5.9
			c0,4.2-2.7,6.1-5.2,6.1c-1.3,0-2.3-0.5-2.7-1.1l0,0v5.5h-4.2V102.9z M417.4,105.5c0,0.3,0,0.5,0.1,0.7c0.2,0.7,0.8,1.4,1.6,1.4
			c1.3,0,2-1.1,2-2.7s-0.7-2.8-2-2.8c-0.8,0-1.6,0.7-1.7,1.5c0,0.2-0.1,0.4-0.1,0.5v1.4H417.4z"/>
		<path class="st1" d="M430.8,106.2c0.1,0.9,1.5,1.4,2.9,1.4c1.1,0,2.1-0.1,3.2-0.4l0.5,2.8c-1.4,0.5-2.9,0.7-4.3,0.7
			c-4,0-6.3-2.2-6.3-5.9c0-2.7,1.7-6.1,6-6.1c3.7,0,5.3,2.7,5.3,5.9c0,0.7-0.1,1.3-0.2,1.6H430.8z M434.2,103.4
			c0-0.7-0.3-1.9-1.6-1.9c-1.2,0-1.7,1.1-1.8,1.9H434.2z"/>
		<path class="st1" d="M440,102.9c0-1.5,0-2.8-0.1-3.9h3.6l0.2,1.5h0.1c0.4-0.6,1.5-1.7,3.4-1.7c2.7,0,4.1,1.8,4.1,5v6.8h-4.2v-6.3
			c0-1.3-0.5-2.1-1.5-2.1c-0.8,0-1.2,0.6-1.4,1c-0.1,0.2-0.1,0.5-0.1,0.8v6.5H440V102.9z"/>
	</g>
</g>
</svg>
